<svg xmlns="http://www.w3.org/2000/svg" class="icon" viewBox="0 0 1024 1024" width="200" height="200" t="1561034790146" p-id="2560" version="1.1"><path fill="#2c2c2c" d="M 628.528 442.848 q 0 -61.728 -30.56 -96.576 t -84.288 -34.848 q -36 0 -70.848 17.44 t -62.848 48.288 t -45.44 78.272 t -17.44 102.848 q 0 64 30.56 98.848 t 86.016 34.848 q 54.848 0 100.576 -38.016 t 70.016 -94.848 t 24.288 -116.288 Z M 950.832 512 q 0 63.424 -21.152 112.576 t -56.288 77.152 t -75.136 42.56 t -82.848 15.712 q -3.424 0 -8.864 0.288 t -9.44 0.288 q -54.272 0 -81.152 -30.272 q -16 -18.848 -18.848 -47.424 q -29.728 37.728 -75.136 62.848 t -99.136 25.152 q -92 0 -142.56 -54.56 t -50.56 -154.016 q 0 -89.728 37.728 -165.728 t 102.272 -120.288 t 140.576 -44.288 q 49.728 0 88.576 20.288 t 60.576 56.864 l 1.152 -10.848 l 6.272 -32 q 0.576 -3.424 3.136 -6.848 t 5.44 -3.424 l 67.424 0 q 2.848 0 7.424 6.272 q 2.848 2.848 1.728 9.152 l -68.576 350.848 q -2.848 13.728 -2.848 27.424 q 0 22.272 7.136 29.728 t 25.44 7.424 q 16 -0.576 32.576 -3.136 t 41.728 -13.728 t 44 -28.576 t 32.576 -51.136 t 13.728 -78.272 q 0 -166.848 -99.424 -266.272 t -266.272 -99.424 q -74.272 0 -142.016 29.152 t -116.576 78.016 t -78.016 116.576 t -29.152 142.016 t 29.152 142.016 t 78.016 116.576 t 116.576 78.016 t 142.016 29.152 q 130.272 0 231.424 -82.272 q 6.272 -5.152 13.728 -4.576 t 12 6.848 l 23.424 28 q 4.576 6.848 4 13.728 q -1.152 7.424 -6.848 12.576 q -58.272 47.424 -130.016 73.152 t -147.712 25.728 q -89.152 0 -170.272 -34.848 t -140 -93.728 t -93.728 -140 t -34.848 -170.272 t 34.848 -170.272 t 93.728 -140 t 140 -93.728 t 170.272 -34.848 q 196.576 0 317.728 121.152 t 121.152 317.728 Z" p-id="2561" /></svg>